<?xml version="1.0" encoding="iso-8859-1"?>
<!-- Generator: Adobe Illustrator 19.0.0, SVG Export Plug-In . SVG Version: 6.00 Build 0)  -->
<svg version="1.1" id="Capa_1" xmlns="http://www.w3.org/2000/svg" xmlns:xlink="http://www.w3.org/1999/xlink" x="0px" y="0px"
	 viewBox="0 0 512 512" style="enable-background:new 0 0 512 512;" xml:space="preserve">
<g>
	<g>
		<path d="M473.6,0H38.4C17.229,0,0,17.229,0,38.4v64h512v-64C512,17.229,494.771,0,473.6,0z M85.333,76.8
			c0,4.719-3.823,8.533-8.533,8.533H42.667c-4.71,0-8.533-3.814-8.533-8.533V42.667c0-4.719,3.823-8.533,8.533-8.533H76.8
			c4.71,0,8.533,3.814,8.533,8.533V76.8z M153.6,76.8c0,4.719-3.823,8.533-8.533,8.533h-34.133c-4.71,0-8.533-3.814-8.533-8.533
			V42.667c0-4.719,3.823-8.533,8.533-8.533h34.133c4.71,0,8.533,3.814,8.533,8.533V76.8z M221.867,76.8
			c0,4.719-3.823,8.533-8.533,8.533H179.2c-4.71,0-8.533-3.814-8.533-8.533V42.667c0-4.719,3.823-8.533,8.533-8.533h34.133
			c4.71,0,8.533,3.814,8.533,8.533V76.8z"/>
	</g>
</g>
<g>
	<g>
		<rect x="187.733" y="51.2" width="17.067" height="17.067"/>
	</g>
</g>
<g>
	<g>
		<rect x="119.467" y="51.2" width="17.067" height="17.067"/>
	</g>
</g>
<g>
	<g>
		<path d="M256,221.867c-47.053,0-85.333,38.281-85.333,85.333s38.281,85.333,85.333,85.333c47.053,0,85.333-38.281,85.333-85.333
			S303.053,221.867,256,221.867z M227.9,326.767c3.337,3.336,3.337,8.73,0,12.066c-1.664,1.664-3.849,2.5-6.033,2.5
			s-4.369-0.836-6.033-2.5l-25.6-25.6c-3.337-3.337-3.337-8.73,0-12.066l25.6-25.6c3.328-3.337,8.738-3.337,12.066,0
			c3.337,3.336,3.337,8.73,0,12.066L208.341,307.2L227.9,326.767z M272.734,275.405l-17.067,59.733
			c-1.067,3.746-4.489,6.195-8.201,6.195c-0.776,0-1.562-0.111-2.347-0.324c-4.531-1.297-7.159-6.025-5.862-10.547l17.067-59.733
			c1.297-4.531,6.025-7.125,10.547-5.871C271.403,266.155,274.031,270.882,272.734,275.405z M296.166,338.833
			c-1.664,1.664-3.849,2.5-6.033,2.5c-2.185,0-4.369-0.836-6.033-2.5c-3.337-3.336-3.337-8.73,0-12.066l19.567-19.567L284.1,287.633
			c-3.337-3.337-3.337-8.73,0-12.066c3.328-3.337,8.738-3.337,12.066,0l25.6,25.6c3.328,3.337,3.328,8.73,0,12.066L296.166,338.833z
			"/>
	</g>
</g>
<g>
	<g>
		<path d="M398.566,290.142c-12.664-0.008-23.936-8.286-27.418-20.13c-1.792-6.093-4.036-10.078-7.142-15.582l-2.543-4.565
			c-5.931-10.889-3.831-24.738,5.12-33.673l7.817-7.817l-19.558-19.558l-7.817,7.817c-8.943,8.934-22.793,11.059-33.673,5.111
			l-4.557-2.534c-5.513-3.106-9.498-5.35-15.599-7.151c-11.853-3.482-20.122-14.754-20.122-27.418V153.6h-34.133v11.034
			c0,12.655-8.277,23.936-20.122,27.418c-6.093,1.801-10.086,4.045-15.599,7.151l-4.548,2.534
			c-10.88,5.922-24.73,3.831-33.673-5.111l-7.817-7.817l-19.558,19.558l7.817,7.817c8.943,8.934,11.042,22.784,5.111,33.673
			l-2.543,4.565c-3.106,5.513-5.35,9.489-7.142,15.582c-3.482,11.853-14.754,20.122-27.409,20.122h-11.034v34.133h11.034
			c12.655,0,23.927,8.277,27.418,20.122c1.792,6.093,4.036,10.069,7.134,15.582l2.543,4.565c5.931,10.889,3.831,24.738-5.12,33.673
			l-7.817,7.817l19.558,19.558l7.817-7.817c8.943-8.934,22.784-11.051,33.681-5.111l4.54,2.526
			c5.521,3.115,9.506,5.359,15.607,7.159c11.853,3.482,20.122,14.754,20.122,27.418V460.8h34.133v-11.034
			c0-12.655,8.277-23.936,20.122-27.418c6.101-1.801,10.095-4.045,15.616-7.159l4.54-2.526c10.88-5.939,24.73-3.823,33.673,5.111
			l7.817,7.817l19.558-19.558l-7.817-7.817c-8.943-8.934-11.042-22.784-5.111-33.673l2.543-4.565
			c3.106-5.513,5.342-9.489,7.134-15.582c3.482-11.853,14.754-20.122,27.418-20.122H409.6v-34.133H398.566z M256,409.6
			c-56.465,0-102.4-45.935-102.4-102.4S199.535,204.8,256,204.8s102.4,45.935,102.4,102.4S312.457,409.6,256,409.6z"/>
	</g>
</g>
<g>
	<g>
		<path d="M0,119.467V473.6C0,494.771,17.229,512,38.4,512h435.2c21.171,0,38.4-17.229,38.4-38.4V119.467H0z M426.684,332.8h-0.017
			c0,4.719-3.823,8.533-8.533,8.533h-19.567c-5.137,0-9.677,3.243-11.042,7.876c-2.347,7.962-5.402,13.389-8.644,19.14l-2.424,4.361
			c-2.338,4.292-1.434,9.813,2.185,13.44L392.499,400c3.328,3.336,3.328,8.73,0,12.066l-31.625,31.625
			c-1.604,1.604-3.772,2.5-6.033,2.5c-2.261,0-4.437-0.896-6.033-2.5l-13.85-13.85c-3.618-3.618-9.148-4.523-13.44-2.193
			l-4.335,2.406c-5.76,3.251-11.204,6.315-19.174,8.661c-4.634,1.365-7.876,5.905-7.876,11.051v19.567
			c0,4.719-3.823,8.533-8.533,8.533h-51.2c-4.71,0-8.533-3.814-8.533-8.533v-19.567c0-5.146-3.234-9.685-7.876-11.051
			c-7.97-2.338-13.406-5.41-19.174-8.661l-4.326-2.406c-4.284-2.321-9.813-1.425-13.449,2.193l-13.841,13.85
			c-3.2,3.191-8.875,3.191-12.075,0l-31.625-31.625c-3.337-3.337-3.337-8.73,0-12.066l13.85-13.85
			c3.635-3.627,4.531-9.148,2.193-13.44l-2.432-4.361c-3.234-5.751-6.298-11.187-8.644-19.14c-1.365-4.634-5.905-7.876-11.042-7.876
			H93.858c-4.71,0-8.533-3.814-8.533-8.533v-51.2c0-4.719,3.823-8.533,8.533-8.533h19.567c5.137,0,9.677-3.243,11.042-7.876
			c2.338-7.962,5.41-13.389,8.653-19.149l2.424-4.352c2.338-4.284,1.434-9.813-2.193-13.44l-13.85-13.85
			c-3.336-3.337-3.336-8.73,0-12.066l31.625-31.625c1.604-1.604,3.772-2.5,6.033-2.5c2.27,0,4.437,0.896,6.042,2.5l13.85,13.85
			c3.627,3.627,9.156,4.523,13.449,2.193l4.335-2.415c5.76-3.243,11.196-6.306,19.166-8.653c4.634-1.365,7.876-5.905,7.876-11.051
			v-19.567c0-4.719,3.823-8.533,8.533-8.533h51.2c4.71,0,8.533,3.814,8.533,8.533v19.567c0,5.146,3.234,9.685,7.876,11.051
			c7.97,2.338,13.406,5.41,19.166,8.653l4.335,2.415c4.284,2.33,9.813,1.434,13.449-2.193l13.85-13.85
			c3.2-3.209,8.866-3.209,12.066,0l31.625,31.625c3.337,3.337,3.337,8.73,0,12.066l-13.85,13.85
			c-3.627,3.627-4.531,9.156-2.193,13.44l2.423,4.352c3.243,5.76,6.306,11.196,8.644,19.149c1.374,4.634,5.914,7.876,11.051,7.876
			h19.567c4.71,0,8.533,3.814,8.533,8.533V332.8z"/>
	</g>
</g>
<g>
	<g>
		<rect x="51.2" y="51.2" width="17.067" height="17.067"/>
	</g>
</g>
<g>
</g>
<g>
</g>
<g>
</g>
<g>
</g>
<g>
</g>
<g>
</g>
<g>
</g>
<g>
</g>
<g>
</g>
<g>
</g>
<g>
</g>
<g>
</g>
<g>
</g>
<g>
</g>
<g>
</g>
</svg>
