<?xml version="1.0"?>
<svg xmlns="http://www.w3.org/2000/svg" xmlns:xlink="http://www.w3.org/1999/xlink" xmlns:svgjs="http://svgjs.com/svgjs" version="1.1" width="512" height="512" x="0" y="0" viewBox="0 0 512 512" style="enable-background:new 0 0 512 512" xml:space="preserve" class=""><g><path xmlns="http://www.w3.org/2000/svg" d="m451.398438 0h-390.796876c-33.414062 0-60.601562 27.1875-60.601562 60.601562v390.796876c0 33.414062 27.1875 60.601562 60.601562 60.601562h390.796876c33.414062 0 60.601562-27.1875 60.601562-60.601562v-390.796876c0-33.414062-27.1875-60.601562-60.601562-60.601562zm-390.796876 30h390.796876c16.875 0 30.601562 13.726562 30.601562 30.601562v39h-452v-39c0-16.875 13.726562-30.601562 30.601562-30.601562zm390.796876 452h-390.796876c-16.875 0-30.601562-13.726562-30.601562-30.601562v-321.796876h452v321.796876c0 16.875-13.726562 30.601562-30.601562 30.601562zm0 0" fill="#d7dae0" data-original="#000000" style="" class=""/><path xmlns="http://www.w3.org/2000/svg" d="m65.871094 79.800781h15.300781c8.285156 0 15-6.714843 15-15 0-8.28125-6.714844-15-15-15h-15.300781c-8.28125 0-15 6.71875-15 15 0 8.285157 6.71875 15 15 15zm0 0" fill="#d7dae0" data-original="#000000" style="" class=""/><path xmlns="http://www.w3.org/2000/svg" d="m121.359375 79.800781h15.300781c8.285156 0 15-6.714843 15-15 0-8.28125-6.714844-15-15-15h-15.300781c-8.285156 0-15 6.71875-15 15 0 8.285157 6.714844 15 15 15zm0 0" fill="#d7dae0" data-original="#000000" style="" class=""/><path xmlns="http://www.w3.org/2000/svg" d="m176.710938 79.800781h15.300781c8.28125 0 15-6.714843 15-15 0-8.28125-6.71875-15-15-15h-15.300781c-8.285157 0-15 6.71875-15 15 0 8.285157 6.714843 15 15 15zm0 0" fill="#d7dae0" data-original="#000000" style="" class=""/><path xmlns="http://www.w3.org/2000/svg" d="m65.871094 189.472656h335.984375c8.285156 0 15-6.714844 15-15 0-8.28125-6.714844-15-15-15h-335.984375c-8.28125 0-15 6.71875-15 15 0 8.285156 6.71875 15 15 15zm0 0" fill="#d7dae0" data-original="#000000" style="" class=""/><path xmlns="http://www.w3.org/2000/svg" d="m446.5625 219.472656h-350.621094c-8.285156 0-15 6.71875-15 15 0 8.285156 6.714844 15 15 15h350.617188c8.285156 0 15-6.714844 15-15 0-8.28125-6.714844-15-14.996094-15zm0 0" fill="#d7dae0" data-original="#000000" style="" class=""/><path xmlns="http://www.w3.org/2000/svg" d="m370.179688 279.367188h-304.308594c-8.28125 0-15 6.71875-15 15 0 8.285156 6.71875 15 15 15h304.308594c8.28125 0 15-6.714844 15-15 0-8.28125-6.71875-15-15-15zm0 0" fill="#d7dae0" data-original="#000000" style="" class=""/><path xmlns="http://www.w3.org/2000/svg" d="m200.394531 339.367188h-104.453125c-8.285156 0-15 6.71875-15 15 0 8.285156 6.714844 15 15 15h104.453125c8.28125 0 15-6.714844 15-15 0-8.28125-6.71875-15-15-15zm0 0" fill="#d7dae0" data-original="#000000" style="" class=""/><path xmlns="http://www.w3.org/2000/svg" d="m406.921875 345.394531c-5.855469-5.855469-15.355469-5.855469-21.210937 0-5.859376 5.859375-5.859376 15.355469 0 21.214844l32.570312 32.570313-32.570312 32.574218c-5.859376 5.855469-5.859376 15.355469 0 21.210938 2.929687 2.929687 6.765624 4.394531 10.605468 4.394531 3.835938 0 7.675782-1.464844 10.605469-4.394531l36.386719-36.386719c9.59375-9.59375 9.59375-25.203125 0-34.796875zm0 0" fill="#d7dae0" data-original="#000000" style="" class=""/><path xmlns="http://www.w3.org/2000/svg" d="m346.878906 345.394531c-5.855468-5.855469-15.355468-5.855469-21.210937 0l-36.386719 36.386719c-9.59375 9.59375-9.59375 25.203125 0 34.796875l36.386719 36.386719c2.929687 2.929687 6.765625 4.394531 10.605469 4.394531 3.835937 0 7.675781-1.464844 10.605468-4.394531 5.859375-5.855469 5.859375-15.355469 0-21.210938l-32.570312-32.574218 32.570312-32.570313c5.859375-5.859375 5.859375-15.355469 0-21.214844zm0 0" fill="#d7dae0" data-original="#000000" style="" class=""/></g></svg>
